# xmcd
# 
# Track frame offsets:
#     150
#     30200
#     60411
#     83398
#     126302
# 
# Disc length: 2086
# 
# Revision: 2
# Processed by: cddbd v1.5.2PL0 Copyright (c) Steve Scherf et al.
# Submitted via: fre:ac v1.0.31
# 
DISCID=2c082405
DTITLE=John Lee Sanders and Garth Webber - Live At The Baltic (bootleg CD)
DYEAR=2004
DGENRE=Blues
TTITLE0=Let The Good Times Roll
TTITLE1=Help The Poor
TTITLE2=Pretty Woman
TTITLE3=Take Me To The River
TTITLE4=A Famous Blues Song?
EXTD=The Garth Webber Collection \nFrom The Music Vault Of Garth Webber\nGarth Webber - Guitar\nShow 07-26-2002 
EXTT0=
EXTT1=
EXTT2=
EXTT3=
EXTT4=
PLAYORDER=
